<?xml version="1.0" standalone="no"?>
<!DOCTYPE svg PUBLIC "-//W3C//DTD SVG 20010904//EN"
 "http://www.w3.org/TR/2001/REC-SVG-20010904/DTD/svg10.dtd">
<svg version="1.0" xmlns="http://www.w3.org/2000/svg"
 width="1080.000000pt" height="1080.000000pt" viewBox="0 0 1080.000000 1080.000000"
 preserveAspectRatio="xMidYMid meet">
<metadata>
Created by potrace 1.11, written by Peter Selinger 2001-2013
</metadata>
<g transform="translate(0.000000,1080.000000) scale(0.100000,-0.100000)"
fill="#000000" stroke="none">
<path d="M0 5400 l0 -5400 5400 0 5400 0 0 5400 0 5400 -5400 0 -5400 0 0
-5400z m6418 552 l2 -292 41 20 c113 58 302 81 449 56 356 -62 541 -354 516
-816 -16 -312 -135 -527 -348 -628 -142 -68 -193 -77 -438 -77 -188 1 -226 3
-303 23 -207 52 -310 139 -336 286 -12 66 -16 1708 -4 1720 4 3 99 5 212 4
l206 -3 3 -293z m-2056 -231 c42 -11 99 -31 127 -46 l52 -26 92 30 c167 53
239 65 402 64 119 0 166 -5 227 -21 192 -52 294 -147 333 -313 12 -53 15 -158
15 -611 l0 -548 -215 0 -215 0 0 488 c0 451 -2 490 -19 527 -40 90 -130 130
-275 123 -61 -3 -105 -11 -134 -24 l-43 -19 1 -547 0 -548 -214 0 -215 0 -3
493 c-3 544 0 518 -70 585 -48 48 -120 66 -237 60 -57 -3 -113 -12 -138 -23
l-43 -17 0 -549 0 -549 -215 0 -215 0 0 669 0 669 48 20 c119 51 360 110 537
131 119 15 325 6 417 -18z"/>
<path d="M6542 5390 c-18 -4 -53 -15 -78 -25 l-44 -17 0 -347 c0 -380 -1 -375
61 -406 82 -43 272 -36 361 12 124 67 180 249 148 477 -22 157 -92 262 -203
303 -36 13 -194 15 -245 3z"/>
</g>
</svg>
